<svg xmlns="http://www.w3.org/2000/svg" viewBox="0 0 1000 1000"><defs><style>.cls-1{isolation:isolate;}.cls-2,.cls-3,.cls-5{fill:none;}.cls-3,.cls-5{stroke:#010101;stroke-miterlimit:10;}.cls-3{stroke-width:5.94px;}.cls-4{opacity:0.5;mix-blend-mode:color-burn;}.cls-5{stroke-width:5.94px;}.cls-6{font-size:50px;fill:#6d6e71;font-family:Lato-Regular, Lato;}.cls-7{letter-spacing:-0.03em;}.cls-8{letter-spacing:0em;}.cls-9{letter-spacing:-0.03em;}</style></defs><title>34Artboard 32</title><g class="cls-1"><g id="Layer_18" data-name="Layer 18"><rect class="cls-2" x="2.97" width="1000" height="1000"/><rect class="cls-3" x="127.97" y="137.41" width="750" height="600"/><g class="cls-4"><path class="cls-5" d="M313.68,439.21C357,436.71,391,400.73,391,356.74a82.38,82.38,0,0,0-82.38-82.6A82.38,82.38,0,0,1,391,356.74c0,44-34,80-77.33,82.47,88,3.19,158.49,75.82,158.85,164.25l29.69-.52c0-88.74-70.67-161.72-158.86-164.92,43.34-2.5,77.33-38.48,77.33-82.46A82.39,82.39,0,0,0,338.31,273l-9.78.18a82.36,82.36,0,0,1,77.32,82.43c0,44-34,80-77.33,82.46,88.19,3.2,158.85,76.18,158.86,164.92,0-88.74-70.67-161.72-158.86-164.92,43.34-2.5,77.33-38.48,77.33-82.46a82.36,82.36,0,0,0-77.32-82.43L203,275.33a82.38,82.38,0,0,1,82.38,82.6c0,44-34,80-77.33,82.46,88.19,3.2,158.85,76.19,158.86,164.92l15.41-.27c-.78-88.07-71.13-160.28-158.84-163.46,43.35-2.49,77.33-38.48,77.33-82.46a82.38,82.38,0,0,0-82.38-82.6,82.38,82.38,0,0,1,82.38,82.6c0,44-34,80-77.33,82.46C311.16,444.76,381.51,517,382.29,605l14.84-.26c-.92-87.95-71.22-160-158.84-163.2,43.35-2.49,77.33-38.48,77.33-82.46a82.38,82.38,0,0,0-82.38-82.6,82.38,82.38,0,0,1,82.38,82.6c0,44-34,80-77.33,82.46,87.62,3.18,157.92,75.25,158.84,163.2l14.85-.26c-.43-88.38-70.92-160.94-158.85-164.13,43.35-2.49,77.33-38.48,77.33-82.46a82.38,82.38,0,0,0-82.38-82.6,82.38,82.38,0,0,1,82.38,82.6c0,44-34,80-77.33,82.46,87.93,3.19,158.42,75.75,158.85,164.13l15.42-.27c-.88-88-71.19-160.08-158.84-163.26a82.62,82.62,0,0,0-5-165.07,82.62,82.62,0,0,1,5,165.07c87.65,3.18,158,75.28,158.84,163.26l15.46-.27c-.09-88.67-70.72-161.57-158.86-164.77,43.35-2.5,77.33-38.48,77.33-82.47A82.38,82.38,0,0,0,279,274.14a82.38,82.38,0,0,1,82.38,82.6c0,44-34,80-77.33,82.47,88.14,3.2,158.77,76.1,158.86,164.77l14.83-.26c-.22-88.55-70.8-161.32-158.85-164.51,43.34-2.5,77.33-38.48,77.33-82.47a82.38,82.38,0,0,0-82.38-82.6,82.38,82.38,0,0,1,82.38,82.6c0,44-34,80-77.33,82.47,88.05,3.19,158.63,76,158.85,164.51l14.84-.26C472.17,515,401.65,442.4,313.68,439.21Z"/><path class="cls-5" d="M562,437.52c0-86.84,66.86-158,151.82-164.63l-14-.06c-85.38,6.18-152.7,77.55-152.7,164.69,0,91.2,73.71,165.14,164.72,165.14l2,0-2,0c-91,0-164.72-73.94-164.72-165.14,0-87.14,67.32-158.51,152.7-164.69L686,272.77c-85.84,5.71-153.67,77.28-153.67,164.75,0,91.2,73.71,165.14,164.72,165.14l2,0-2,0c-91,0-164.72-73.94-164.72-165.14,0-87.47,67.83-159,153.67-164.75l-13.87-.06c-86.3,5.23-154.64,77-154.64,164.81,0,91.2,73.71,165.14,164.72,165.14l2,0-2,0c-91,0-164.72-73.94-164.72-165.14,0-87.8,68.34-159.58,154.64-164.81l-4.74,0c-91,0-164.74,73.93-164.74,165.13S576.37,603,667.38,603h2l57.62.26c-2.09-.19-4.19-.4-6.26-.66C632.53,599.39,562,526.72,562,437.52Z"/><path class="cls-5" d="M636.22,438.41c0-91.2,73.73-165.13,164.74-165.13l-87.12-.39C628.88,279.5,562,350.68,562,437.52c0,89.2,70.51,161.87,158.75,165-81.17-10.26-143.91-79.69-143.91-163.83,0-91.2,73.73-165.13,164.74-165.13-91,0-164.74,73.93-164.74,165.13,0,84.14,62.74,153.57,143.91,163.83,2,.07,4,.12,6,.12l2,0-2,0c-2,0-4,0-6-.12,2.07.26,4.17.47,6.26.66l20.18.08C660.49,598.5,591.7,526.52,591.7,438.41c0-91.2,73.73-165.13,164.74-165.13-91,0-164.74,73.93-164.74,165.13,0,88.11,68.79,160.09,155.51,164.87l16.25.08C676.08,599.28,606.54,527,606.54,438.41c0-91.2,73.73-165.13,164.74-165.13-91,0-164.74,73.93-164.74,165.13,0,88.58,69.54,160.87,156.92,165l16.8.07c-88.3-3.08-158.88-75.78-158.88-165,0-91.2,73.73-165.13,164.74-165.13-91,0-164.74,73.93-164.74,165.13,0,89.24,70.58,161.94,158.88,165l18,.08C708.47,602.06,636.22,528.7,636.22,438.41Z"/><path class="cls-5" d="M803,603.53l-4.74,0c.9,0,1.8,0,2.71,0Z"/></g><text class="cls-6" transform="translate(162.82 834.26)">READCHINA: LIANH<tspan class="cls-7" x="465" y="0">U</tspan><tspan class="cls-8" x="500.1" y="0">ANH</tspan><tspan class="cls-9" x="609.69" y="0">U</tspan><tspan x="644.79" y="0">A</tspan></text></g></g></svg>