<svg xmlns="http://www.w3.org/2000/svg" viewBox="0 0 1000 1000"><defs><style>.cls-1{isolation:isolate;}.cls-2{opacity:0.5;mix-blend-mode:color-burn;}.cls-3,.cls-6,.cls-7{fill:none;}.cls-3{stroke:#ed1c24;stroke-width:5.94px;}.cls-3,.cls-6{stroke-miterlimit:10;}.cls-4{font-size:50px;fill:#be1e2d;font-family:Lato-Regular, Lato;}.cls-5{letter-spacing:-0.02em;}.cls-6{stroke:#2e3192;stroke-width:0.5px;}</style></defs><title>34Artboard 33</title><g class="cls-1"><g id="Layer_19" data-name="Layer 19"><g class="cls-2"><path class="cls-3" d="M310.71,443.61c43.34-2.5,77.33-38.48,77.33-82.46a82.39,82.39,0,0,0-82.38-82.61A82.39,82.39,0,0,1,388,361.15c0,44-34,80-77.33,82.46,88,3.19,158.49,75.82,158.85,164.25l29.69-.52c0-88.74-70.67-161.72-158.86-164.92,43.34-2.49,77.33-38.48,77.33-82.46a82.38,82.38,0,0,0-82.38-82.6l-9.78.17A82.36,82.36,0,0,1,402.88,360c0,44-34,80-77.33,82.46,88.19,3.2,158.85,76.18,158.86,164.92,0-88.74-70.67-161.72-158.86-164.92,43.34-2.49,77.33-38.48,77.33-82.46a82.36,82.36,0,0,0-77.32-82.43L200,279.73a82.38,82.38,0,0,1,82.38,82.6c0,44-34,80-77.33,82.46C293.24,448,363.9,521,363.91,609.71l15.41-.27c-.78-88.07-71.13-160.27-158.84-163.46,43.35-2.49,77.33-38.48,77.33-82.46a82.38,82.38,0,0,0-82.38-82.6,82.38,82.38,0,0,1,82.38,82.6c0,44-34,80-77.33,82.46,87.71,3.19,158.06,75.39,158.84,163.46l14.84-.26c-.92-87.95-71.22-160-158.84-163.2,43.35-2.49,77.33-38.48,77.33-82.46a82.38,82.38,0,0,0-82.38-82.6,82.38,82.38,0,0,1,82.38,82.6c0,44-34,80-77.33,82.46,87.62,3.18,157.92,75.25,158.84,163.2l14.85-.26c-.43-88.37-70.92-160.93-158.85-164.13,43.35-2.49,77.33-38.47,77.33-82.46a82.38,82.38,0,0,0-82.38-82.6,82.38,82.38,0,0,1,82.38,82.6c0,44-34,80-77.33,82.46C338.09,448,408.58,520.55,409,608.92l15.42-.27c-.88-88-71.2-160.08-158.84-163.26a82.62,82.62,0,0,0-5-165.07,82.62,82.62,0,0,1,5,165.07c87.64,3.18,158,75.28,158.84,163.26l15.45-.27C439.8,519.71,369.17,446.81,281,443.61c43.34-2.5,77.33-38.48,77.33-82.46A82.39,82.39,0,0,0,276,278.54a82.39,82.39,0,0,1,82.38,82.61c0,44-34,80-77.33,82.46,88.14,3.2,158.77,76.1,158.85,164.77l14.84-.26c-.22-88.55-70.8-161.32-158.85-164.51,43.34-2.5,77.33-38.48,77.33-82.46a82.39,82.39,0,0,0-82.38-82.61,82.39,82.39,0,0,1,82.38,82.61c0,44-34,80-77.33,82.46,88.05,3.19,158.63,76,158.85,164.51l14.84-.26C469.2,519.43,398.68,446.8,310.71,443.61Z"/><path class="cls-3" d="M559.05,441.93c0-86.85,66.85-158,151.82-164.63l-14-.07c-85.38,6.19-152.7,77.55-152.7,164.7,0,91.2,73.71,165.13,164.72,165.13l2,0-2,0c-91,0-164.72-73.93-164.72-165.13,0-87.15,67.32-158.51,152.7-164.7L683,277.17c-85.84,5.71-153.67,77.29-153.67,164.76,0,91.2,73.71,165.13,164.72,165.13l2,0-2,0c-91,0-164.72-73.93-164.72-165.13,0-87.47,67.83-159,153.67-164.76l-13.87-.06c-86.3,5.23-154.64,77-154.64,164.82,0,91.2,73.71,165.13,164.72,165.13l2,0-2,0c-91,0-164.72-73.93-164.72-165.13,0-87.8,68.34-159.59,154.64-164.82l-4.74,0c-91,0-164.74,73.93-164.74,165.13S573.4,607.35,664.41,607.35h2l57.62.26c-2.1-.19-4.19-.4-6.26-.66C629.56,603.79,559.05,531.12,559.05,441.93Z"/><path class="cls-3" d="M633.25,442.82c0-91.2,73.73-165.14,164.74-165.14l-87.12-.38c-85,6.6-151.82,77.78-151.82,164.63,0,89.19,70.51,161.86,158.75,165-81.18-10.25-143.91-79.69-143.91-163.83,0-91.2,73.73-165.13,164.74-165.13-91,0-164.74,73.93-164.74,165.13,0,84.14,62.73,153.58,143.91,163.83,2,.07,4,.12,6,.12l2,0-2,0c-2,0-4,0-6-.12,2.07.26,4.16.47,6.26.66l20.18.09c-86.72-4.79-155.51-76.77-155.51-164.87,0-91.2,73.73-165.14,164.74-165.14-91,0-164.74,73.94-164.74,165.14,0,88.1,68.79,160.08,155.51,164.87l16.25.07c-87.38-4.08-156.92-76.36-156.92-164.94,0-91.2,73.73-165.14,164.74-165.14-91,0-164.74,73.94-164.74,165.14,0,88.58,69.54,160.86,156.92,164.94l16.8.07c-88.3-3.08-158.88-75.77-158.88-165,0-91.2,73.73-165.14,164.74-165.14-91,0-164.74,73.94-164.74,165.14,0,89.24,70.58,161.93,158.88,165l18,.08C705.5,606.46,633.25,533.11,633.25,442.82Z"/><path class="cls-3" d="M800,607.93l-4.75,0c.91,0,1.81,0,2.72,0Z"/></g><text class="cls-4" transform="translate(149.67 838.66)">READCHINA: SHOUCH<tspan class="cls-5" x="527.1" y="0">A</tspan><tspan x="560.05" y="0">OBEN</tspan></text><rect class="cls-6" x="125" y="146.81" width="750" height="600"/><line class="cls-6" x1="125" y1="723.73" x2="875" y2="723.73"/><line class="cls-6" x1="125" y1="700.66" x2="875" y2="700.66"/><line class="cls-6" x1="125" y1="677.58" x2="875" y2="677.58"/><line class="cls-6" x1="125" y1="654.5" x2="875" y2="654.5"/><line class="cls-6" x1="125" y1="631.43" x2="875" y2="631.43"/><line class="cls-6" x1="125" y1="608.35" x2="875" y2="608.35"/><line class="cls-6" x1="125" y1="585.27" x2="875" y2="585.27"/><line class="cls-6" x1="125" y1="562.2" x2="875" y2="562.2"/><line class="cls-6" x1="125" y1="539.12" x2="875" y2="539.12"/><line class="cls-6" x1="125" y1="516.04" x2="875" y2="516.04"/><line class="cls-6" x1="125" y1="492.96" x2="875" y2="492.96"/><line class="cls-6" x1="125" y1="469.89" x2="875" y2="469.89"/><line class="cls-6" x1="125" y1="446.81" x2="875" y2="446.81"/><line class="cls-6" x1="125" y1="423.73" x2="875" y2="423.73"/><line class="cls-6" x1="125" y1="400.66" x2="875" y2="400.66"/><line class="cls-6" x1="125" y1="377.58" x2="875" y2="377.58"/><line class="cls-6" x1="125" y1="354.5" x2="875" y2="354.5"/><line class="cls-6" x1="125" y1="331.43" x2="875" y2="331.43"/><line class="cls-6" x1="125" y1="308.35" x2="875" y2="308.35"/><line class="cls-6" x1="125" y1="285.27" x2="875" y2="285.27"/><line class="cls-6" x1="125" y1="262.2" x2="875" y2="262.2"/><line class="cls-6" x1="125" y1="239.12" x2="875" y2="239.12"/><line class="cls-6" x1="125" y1="216.04" x2="875" y2="216.04"/><line class="cls-6" x1="125" y1="192.96" x2="875" y2="192.96"/><line class="cls-6" x1="125" y1="169.89" x2="875" y2="169.89"/></g><g id="Layer_16" data-name="Layer 16"><rect class="cls-7" x="-0.75" width="1000" height="1000"/></g></g></svg>